<svg width="50px" height="50px" xmlns="http://www.w3.org/2000/svg" version="1.1">
	<path id="contact_outer" d="M25,50 C20,50 15,48 11,46 L0,50 L3,38 C1,34 0,29 0,25 C0,11 11,0 25,0 C38,0 50,11 50,25 C50,38 38,50 25,50 L25,50 Z M25,50" fill="rgb(245,92,83)"></path>
	<path id="contact_shape1" d="M23,43 C28,43 33,38 33,33 C33,27 28,23 23,23 C17,23 13,27 13,33 C13,38 17,43 23,43 Z M23,43" fill="rgb(255,254,254)"></path>
	<path id="contact_shape2" d="M33,21 C36,21 39,18 39,15 C39,11 36,9 33,9 C29,9 27,11 27,15 C27,18 29,21 33,21 Z M33,21" fill="rgb(255,254,254)"></path>
</svg>