<svg width="490px" height="150px" xmlns="http://www.w3.org/2000/svg" version="1.1">
	<g id="design">
		<path id="design_outer" d="M75,150 C116,150 150,116 150,75 C150,33 116,0 75,0 C33,0 0,33 0,75 C0,116 33,150 75,150 Z M75,150" fill="rgb(255,255,255)"></path>
		<path id="design_shape" d="M75,125 C47,125 25,102 25,75 C25,47 47,25 75,25 C102,25 125,47 125,75 C125,102 102,125 75,125 L75,125 Z M75,105 C91,105 105,91 105,75 C105,58 91,45 75,45 C58,45 45,58 45,75 C45,91 58,105 75,105 L75,105 Z M75,105" fill="rgb(204,204,204)"></path>

		<circle id="design_hover" cx="75" cy="75" r="0" fill="#14212F"></circle>
	</g>
	<g id="intro">
		<path id="intro_outer" d="M245,150 C286,150 320,116 320,75 C320,33 286,0 245,0 C203,0 170,33 170,75 C170,116 203,150 245,150 Z M245,150" fill="rgb(255,255,255)"></path>
		<path id="intro_shape" d="M295,65 L295,85 L255,85 L255,125 L235,125 L235,85 L195,85 L195,65 L235,65 L235,25 L255,25 L255,65 L295,65 L295,65 Z M295,65" fill="rgb(204,204,204)"></path>
	</g>
	<g id="build">
		<path id="build_outer" d="M415,150 C456,150 490,116 490,75 C490,33 456,0 415,0 C373,0 340,33 340,75 C340,116 373,150 415,150 Z M415,150" fill="rgb(255,255,255)"></path>
		<path id="build_shape" d="M414,25 L465,75 L414,125 L365,74 L414,25 L414,25 Z M414,45 L385,74 L414,105 L445,75 L414,45 L414,45 Z M414,45" fill="rgb(204,204,204)"></path>
	</g>
</svg>