<svg width="50px" height="50px" xmlns="http://www.w3.org/2000/svg" version="1.1">
	<path id="notes_outer" d="M25,50 C38,50 50,38 50,25 C50,11 38,0 25,0 C11,0 0,11 0,25 C0,38 11,50 25,50 Z M25,50" fill="rgb(121,182,167)"></path>
	<path id="notes_shape1" d="M11,4 C14,1 19,0 25,0 C31,0 36,2 41,5 L41,32 L26,49 C26,49 11,32 11,32 L11,4 L11,4 Z M11,4" fill="rgb(255,254,254)"></path>
	<path id="notes_shape2" d="M30,0 C31,0 32,1 34,1 L34,32 L30,32 L30,0 L30,0 Z M30,0" fill="rgb(121,182,167)"></path>
	<path id="notes_shape3" d="M18,0 C19,0 20,0 22,0 L22,32 L18,32 L18,0 L18,0 Z M18,0" fill="rgb(121,182,167)"></path>
</svg>